<?xml version="1.0" encoding="UTF-8"?>
<svg xmlns="http://www.w3.org/2000/svg" xmlns:xlink="http://www.w3.org/1999/xlink" width="40px" height="31px" viewBox="0 0 40 31" version="1.1">
<g id="surface1">
<path style=" stroke:none;fill-rule:nonzero;fill:rgb(100%,100%,100%);fill-opacity:1;" d="M 33.863281 2.761719 C 31.3125 1.589844 28.578125 0.726562 25.71875 0.234375 C 25.667969 0.226562 25.617188 0.25 25.589844 0.296875 C 25.238281 0.921875 24.847656 1.738281 24.574219 2.378906 C 21.5 1.917969 18.441406 1.917969 15.429688 2.378906 C 15.15625 1.722656 14.753906 0.921875 14.402344 0.296875 C 14.375 0.25 14.320312 0.226562 14.269531 0.234375 C 11.414062 0.726562 8.679688 1.589844 6.128906 2.761719 C 6.105469 2.769531 6.085938 2.785156 6.074219 2.804688 C 0.890625 10.558594 -0.53125 18.117188 0.164062 25.585938 C 0.167969 25.621094 0.1875 25.65625 0.21875 25.679688 C 3.640625 28.191406 6.953125 29.71875 10.207031 30.730469 C 10.257812 30.746094 10.3125 30.726562 10.347656 30.683594 C 11.113281 29.632812 11.800781 28.523438 12.390625 27.359375 C 12.425781 27.289062 12.390625 27.207031 12.320312 27.183594 C 11.230469 26.769531 10.195312 26.265625 9.199219 25.695312 C 9.121094 25.648438 9.113281 25.535156 9.1875 25.480469 C 9.398438 25.324219 9.605469 25.160156 9.804688 24.996094 C 9.84375 24.964844 9.894531 24.957031 9.9375 24.976562 C 16.480469 27.96875 23.570312 27.96875 30.039062 24.976562 C 30.082031 24.957031 30.132812 24.964844 30.167969 24.992188 C 30.371094 25.160156 30.578125 25.324219 30.789062 25.480469 C 30.863281 25.535156 30.859375 25.648438 30.78125 25.695312 C 29.78125 26.277344 28.746094 26.769531 27.65625 27.179688 C 27.585938 27.207031 27.554688 27.289062 27.589844 27.359375 C 28.191406 28.523438 28.875 29.628906 29.632812 30.679688 C 29.664062 30.726562 29.71875 30.746094 29.773438 30.730469 C 33.039062 29.71875 36.355469 28.191406 39.777344 25.679688 C 39.804688 25.65625 39.824219 25.621094 39.828125 25.585938 C 40.660156 16.953125 38.429688 9.457031 33.914062 2.808594 C 33.902344 2.785156 33.882812 2.769531 33.863281 2.761719 Z M 13.367188 21.039062 C 11.394531 21.039062 9.773438 19.226562 9.773438 17.003906 C 9.773438 14.78125 11.363281 12.972656 13.367188 12.972656 C 15.386719 12.972656 16.992188 14.796875 16.960938 17.003906 C 16.960938 19.226562 15.367188 21.039062 13.367188 21.039062 Z M 26.65625 21.039062 C 24.6875 21.039062 23.0625 19.226562 23.0625 17.003906 C 23.0625 14.78125 24.65625 12.972656 26.65625 12.972656 C 28.675781 12.972656 30.285156 14.796875 30.253906 17.003906 C 30.253906 19.226562 28.675781 21.039062 26.65625 21.039062 Z M 26.65625 21.039062 "/>
</g>
</svg>
